<svg id="Layer_1" enable-background="new 0 0 512.086 512.086" height="512" viewBox="0 0 512.086 512.086" width="512" xmlns="http://www.w3.org/2000/svg"><g><path d="m475.822 70.648c19.571 0 35.436-15.865 35.436-35.436-1.737-46.955-69.143-46.942-70.873 0 0 19.571 15.866 35.436 35.437 35.436z"/><path d="m467.883 512.086c24.362 0 44.112-19.75 44.112-44.112-2.163-58.45-86.07-58.435-88.223.001-.001 24.362 19.749 44.111 44.111 44.111z"/><path d="m202.747 294.806c.332-10.201 2.02-20.166 4.98-29.688l-104.342-26.5c.897 8.289-.876 21.26-4.487 29.813z"/><path d="m392.915 218.159 62.015-120.951c-9.735-3.29-18.455-8.798-25.54-15.94l-60.917 118.81c8.826 4.829 17.044 10.885 24.442 18.081z"/><path d="m.092 243.847c0 20.302 16.458 36.759 36.759 36.759 48.708-1.802 48.695-71.723 0-73.518-20.302 0-36.759 16.457-36.759 36.759z"/><path d="m429.54 404.574-27.73-35.352c-6.307 7.76-13.858 14.85-21.95 20.627l27.64 35.236c5.87-8.24 13.367-15.246 22.04-20.511z"/><path d="m249.39 389.619-39.211 40.834c8.463 5.593 15.448 13.243 20.237 22.238l46.605-48.535c-9.811-3.5-19.099-8.383-27.631-14.537z"/><path d="m163.443 90.011c24.805 0 44.914-20.109 44.914-44.914-2.202-59.513-87.635-59.497-89.828.001 0 24.805 20.109 44.913 44.914 44.913z"/><path d="m396.889 298.541c0-45.345-36.76-82.105-82.105-82.105-108.794 4.025-108.764 160.202.001 164.21 45.344.001 82.104-36.759 82.104-82.105z"/><path d="m190.221 115.045 61.931 90.486c8.442-5.711 17.575-10.209 27.182-13.399l-63.822-93.249c-7.197 6.968-15.778 12.507-25.291 16.162z"/><path d="m176.801 450.418c-16.96 0-30.708 13.749-30.708 30.708 1.505 40.69 59.917 40.679 61.417 0-.001-16.959-13.75-30.708-30.709-30.708z"/></g></svg>